<svg width="12" height="12" viewBox="0 0 12 12" fill="none" xmlns="http://www.w3.org/2000/svg">
<g clip-path="url(#clip0_9_26)">
<path d="M7.2705 2.736C7.8685 2.226 8.5 1.462 8.5 0.5V0H3.5V0.5C3.5 1.462 4.1315 2.2255 4.7295 2.736C2.377 3.5745 0.5 6.562 0.5 9C0.5 10.6545 1.8455 12 3.5 12H8.5C10.1545 12 11.5 10.6545 11.5 9C11.5 6.562 9.623 3.5745 7.2705 2.736ZM4.6035 1H7.395C7.1345 1.628 6.45 2.155 6.0035 2.426C5.6275 2.196 4.878 1.67 4.604 1H4.6035ZM8.5 11H3.5C2.397 11 1.5 10.103 1.5 9C1.5 6.4195 3.795 3.5085 5.999 3.5085C8.203 3.5085 10.5 6.42 10.5 9C10.5 10.103 9.603 11 8.5 11ZM5 6.5C5 6.689 5.1355 6.849 5.322 6.88L6.843 7.1335C7.5135 7.245 8.0005 7.82 8.0005 8.5C8.0005 9.327 7.3275 10 6.5005 10V10.5H5.5005V10C4.6735 10 4.0005 9.327 4.0005 8.5H5.0005C5.0005 8.7755 5.225 9 5.5005 9H6.5005C6.776 9 7.0005 8.7755 7.0005 8.5C7.0005 8.311 6.865 8.151 6.6785 8.12L5.1575 7.8665C4.487 7.755 4 7.18 4 6.5C4 5.673 4.673 5 5.5 5V4.5H6.5V5C7.327 5 8 5.673 8 6.5H7C7 6.2245 6.7755 6 6.5 6H5.5C5.2245 6 5 6.2245 5 6.5Z" fill="black"/>
</g>
<defs>
<clipPath id="clip0_9_26">
<rect width="12" height="12" fill="white"/>
</clipPath>
</defs>
</svg>
