<svg width="15" height="15" viewBox="0 0 15 15" fill="none" xmlns="http://www.w3.org/2000/svg">
<path fill-rule="evenodd" clip-rule="evenodd" d="M14.0832 12.536C14.0832 12.1248 13.9199 11.7305 13.6292 11.4397L9.24394 7.05285L13.6292 2.66603C13.7773 2.52299 13.8954 2.35188 13.9767 2.1627C14.058 1.97351 14.1008 1.77003 14.1025 1.56414C14.1043 1.35824 14.0651 1.15405 13.9871 0.963479C13.9092 0.772908 13.794 0.599774 13.6484 0.454179C13.5028 0.308583 13.3297 0.193441 13.1391 0.115473C12.9486 0.0375041 12.7444 -0.00173063 12.5385 5.85474e-05C12.3326 0.00184773 12.1291 0.0446247 11.9399 0.125893C11.7507 0.207162 11.5796 0.325295 11.4366 0.473399L7.0513 4.86022L2.66603 0.473399C2.52299 0.325295 2.35188 0.207162 2.1627 0.125893C1.97351 0.0446247 1.77003 0.00184773 1.56414 5.85474e-05C1.35824 -0.00173063 1.15405 0.0375041 0.96348 0.115473C0.772909 0.193441 0.599774 0.308583 0.454178 0.454179C0.308582 0.599774 0.193441 0.772908 0.115472 0.963479C0.0375034 1.15405 -0.00173063 1.35824 5.85484e-05 1.56414C0.00184773 1.77003 0.0446247 1.97351 0.125893 2.1627C0.207162 2.35188 0.325294 2.52299 0.473398 2.66603L4.85867 7.05285L0.473398 11.4397C0.182694 11.7305 0.0193861 12.1248 0.0193861 12.536C0.0193861 12.9472 0.182694 13.3415 0.473398 13.6323C0.76616 13.9193 1.15977 14.08 1.56972 14.08C1.97967 14.08 2.37327 13.9193 2.66603 13.6323L7.0513 9.24549L11.4366 13.6323C11.7323 13.9135 12.1248 14.0703 12.5329 14.0703C12.941 14.0703 13.3335 13.9135 13.6292 13.6323C13.9199 13.3415 14.0832 12.9472 14.0832 12.536Z" fill="#D9D9D9"/>
</svg>
