<svg width="11" height="11" viewBox="0 0 11 11" fill="none" xmlns="http://www.w3.org/2000/svg">
<g clip-path="url(#clip0_9_2)">
<path d="M5.95833 0.940042V0.458333C5.95833 0.336776 5.91004 0.220197 5.82408 0.134243C5.73813 0.0482886 5.62155 0 5.49999 0C5.37844 0 5.26186 0.0482886 5.1759 0.134243C5.08995 0.220197 5.04166 0.336776 5.04166 0.458333V0.940042C4.11893 1.02277 3.23694 1.35859 2.49286 1.91053C1.74879 2.46246 1.17151 3.20907 0.82462 4.06811C0.477735 4.92715 0.374708 5.86527 0.526892 6.77912C0.679075 7.69297 1.08056 8.54707 1.68712 9.24733C1.44758 9.36583 1.24741 9.55106 1.11071 9.7807C0.974017 10.0103 0.906628 10.2746 0.916661 10.5417C0.916661 10.6632 0.964949 10.7798 1.0509 10.8658C1.13686 10.9517 1.25344 11 1.37499 11C1.49655 11 1.61313 10.9517 1.69908 10.8658C1.78504 10.7798 1.83333 10.6632 1.83333 10.5417C1.82952 10.4004 1.88024 10.2631 1.97496 10.1582C2.06969 10.0533 2.20115 9.98892 2.34208 9.97838C2.3736 9.97238 2.40435 9.96284 2.43374 9.94996C3.3117 10.6309 4.39121 11.0005 5.50229 11.0005C6.61336 11.0005 7.69287 10.6309 8.57083 9.94996C8.59766 9.96232 8.62558 9.97214 8.65424 9.97929C8.79567 9.98893 8.92791 10.0528 9.02338 10.1576C9.11885 10.2624 9.17018 10.4 9.16666 10.5417C9.16666 10.6632 9.21495 10.7798 9.3009 10.8658C9.38686 10.9517 9.50344 11 9.62499 11C9.74655 11 9.86313 10.9517 9.94908 10.8658C10.035 10.7798 10.0833 10.6632 10.0833 10.5417C10.0934 10.2746 10.026 10.0103 9.88928 9.7807C9.75258 9.55106 9.55241 9.36583 9.31287 9.24733C9.91943 8.54707 10.3209 7.69297 10.4731 6.77912C10.6253 5.86527 10.5223 4.92715 10.1754 4.06811C9.82848 3.20907 9.2512 2.46246 8.50712 1.91053C7.76305 1.35859 6.88106 1.02277 5.95833 0.940042ZM1.37499 5.95833C1.37499 5.14249 1.61692 4.34496 2.07018 3.66661C2.52344 2.98825 3.16768 2.45954 3.92142 2.14733C4.67517 1.83512 5.50457 1.75343 6.30474 1.91259C7.10491 2.07176 7.83992 2.46463 8.41681 3.04152C8.9937 3.61841 9.38657 4.35341 9.54573 5.15359C9.7049 5.95376 9.62321 6.78316 9.311 7.5369C8.99879 8.29065 8.47007 8.93488 7.79172 9.38815C7.11337 9.84141 6.31584 10.0833 5.49999 10.0833C4.40639 10.082 3.35795 9.64697 2.58465 8.87368C1.81135 8.10038 1.37633 7.05194 1.37499 5.95833Z" fill="black"/>
<path d="M8.80687 2.07072e-07C8.68532 2.07072e-07 8.56874 0.0482888 8.48278 0.134243C8.39683 0.220197 8.34854 0.336776 8.34854 0.458334C8.34854 0.579891 8.39683 0.69647 8.48278 0.782424C8.56874 0.868378 8.68532 0.916667 8.80687 0.916667C8.9667 0.904518 9.12733 0.924861 9.27908 0.976471C9.43083 1.02808 9.57055 1.10989 9.68983 1.21696C9.80911 1.32403 9.90547 1.45415 9.9731 1.59947C10.0407 1.74479 10.0782 1.9023 10.0833 2.0625C10.0833 2.18406 10.1316 2.30064 10.2176 2.38659C10.3035 2.47254 10.4201 2.52083 10.5417 2.52083C10.6632 2.52083 10.7798 2.47254 10.8658 2.38659C10.9517 2.30064 11 2.18406 11 2.0625C10.9941 1.78223 10.9324 1.50594 10.8185 1.2498C10.7046 0.993656 10.5407 0.762807 10.3365 0.570756C10.1323 0.378704 9.89183 0.229307 9.62918 0.131305C9.36653 0.0333035 9.08698 -0.0113355 8.80687 2.07072e-07Z" fill="black"/>
<path d="M0.916667 2.06244C0.921775 1.90224 0.959275 1.74473 1.0269 1.59941C1.09453 1.45409 1.19089 1.32397 1.31017 1.2169C1.42945 1.10983 1.56917 1.02802 1.72092 0.976413C1.87267 0.924803 2.0333 0.904459 2.19312 0.916609C2.31468 0.916609 2.43126 0.86832 2.51722 0.782366C2.60317 0.696412 2.65146 0.579833 2.65146 0.458275C2.65146 0.336718 2.60317 0.220139 2.51722 0.134185C2.43126 0.0482306 2.31468 -5.79671e-05 2.19312 -5.79671e-05C1.91302 -0.0113936 1.63347 0.0332453 1.37082 0.131247C1.10817 0.229249 0.86771 0.378646 0.663495 0.570697C0.459281 0.762749 0.295417 0.993598 0.181491 1.24974C0.0675653 1.50588 0.00586494 1.78217 0 2.06244C0 2.184 0.0482886 2.30058 0.134243 2.38653C0.220197 2.47249 0.336776 2.52078 0.458333 2.52078C0.579891 2.52078 0.69647 2.47249 0.782424 2.38653C0.868378 2.30058 0.916667 2.184 0.916667 2.06244Z" fill="black"/>
<path d="M5.95832 5.31025V3.20833C5.95832 3.08678 5.91003 2.9702 5.82408 2.88424C5.73813 2.79829 5.62155 2.75 5.49999 2.75C5.37843 2.75 5.26185 2.79829 5.1759 2.88424C5.08995 2.9702 5.04166 3.08678 5.04166 3.20833V5.5C5.04168 5.62155 5.08999 5.73811 5.17595 5.82404L6.55095 7.19904C6.63739 7.28253 6.75317 7.32873 6.87334 7.32768C6.99351 7.32664 7.10847 7.27844 7.19345 7.19346C7.27843 7.10848 7.32663 6.99352 7.32767 6.87335C7.32872 6.75318 7.28252 6.6374 7.19903 6.55096L5.95832 5.31025Z" fill="black"/>
</g>
<defs>
<clipPath id="clip0_9_2">
<rect width="11" height="11" fill="white"/>
</clipPath>
</defs>
</svg>
