<svg width="12" height="12" viewBox="0 0 12 12" fill="none" xmlns="http://www.w3.org/2000/svg">
<g clip-path="url(#clip0_9_28)">
<path d="M11 0H6.5V1H10.293L0 11.293L0.707 12L11 1.707V5.5H12V1C12 0.734784 11.8946 0.48043 11.7071 0.292893C11.5196 0.105357 11.2652 0 11 0Z" fill="black"/>
<path d="M3 5C3.39556 5 3.78224 4.8827 4.11114 4.66294C4.44004 4.44318 4.69638 4.13082 4.84776 3.76537C4.99913 3.39991 5.03874 2.99778 4.96157 2.60982C4.8844 2.22186 4.69392 1.86549 4.41421 1.58579C4.13451 1.30608 3.77814 1.1156 3.39018 1.03843C3.00222 0.961259 2.60009 1.00087 2.23463 1.15224C1.86918 1.30362 1.55682 1.55996 1.33706 1.88886C1.1173 2.21776 1 2.60444 1 3C1 3.53043 1.21071 4.03914 1.58579 4.41421C1.96086 4.78929 2.46957 5 3 5ZM3 2C3.19778 2 3.39112 2.05865 3.55557 2.16853C3.72002 2.27841 3.84819 2.43459 3.92388 2.61732C3.99957 2.80004 4.01937 3.00111 3.98079 3.19509C3.9422 3.38907 3.84696 3.56725 3.70711 3.70711C3.56725 3.84696 3.38907 3.9422 3.19509 3.98079C3.00111 4.01937 2.80004 3.99957 2.61732 3.92388C2.43459 3.84819 2.27841 3.72002 2.16853 3.55557C2.05865 3.39112 2 3.19778 2 3C2 2.73478 2.10536 2.48043 2.29289 2.29289C2.48043 2.10536 2.73478 2 3 2Z" fill="black"/>
<path d="M9 7C8.60444 7 8.21776 7.1173 7.88886 7.33706C7.55996 7.55682 7.30362 7.86918 7.15224 8.23463C7.00087 8.60009 6.96126 9.00222 7.03843 9.39018C7.1156 9.77814 7.30608 10.1345 7.58579 10.4142C7.86549 10.6939 8.22186 10.8844 8.60982 10.9616C8.99778 11.0387 9.39992 10.9991 9.76537 10.8478C10.1308 10.6964 10.4432 10.44 10.6629 10.1111C10.8827 9.78224 11 9.39556 11 9C11 8.46957 10.7893 7.96086 10.4142 7.58579C10.0391 7.21071 9.53043 7 9 7ZM9 10C8.80222 10 8.60888 9.94135 8.44443 9.83147C8.27998 9.72159 8.15181 9.56541 8.07612 9.38268C8.00043 9.19996 7.98063 8.99889 8.01922 8.80491C8.0578 8.61093 8.15304 8.43275 8.29289 8.29289C8.43275 8.15304 8.61093 8.0578 8.80491 8.01921C8.99889 7.98063 9.19996 8.00043 9.38268 8.07612C9.56541 8.15181 9.72159 8.27998 9.83147 8.44443C9.94135 8.60888 10 8.80222 10 9C10 9.26522 9.89464 9.51957 9.70711 9.70711C9.51957 9.89464 9.26522 10 9 10Z" fill="black"/>
</g>
<defs>
<clipPath id="clip0_9_28">
<rect width="12" height="12" fill="white"/>
</clipPath>
</defs>
</svg>
