<svg width="12" height="12" viewBox="0 0 12 12" fill="none" xmlns="http://www.w3.org/2000/svg">
<g clip-path="url(#clip0_9_20)">
<path d="M11.294 0.365C11.2805 0.3715 9.8765 1 8.5005 1C7.8205 1 6.9655 0.7555 6.1375 0.5195C5.2445 0.264 4.32 0 3.5005 0C1.868 0 0.2885 1.0395 0.222 1.084L0 1.2325V12H0.9995V7.7815C1.4455 7.527 2.49 7 3.5005 7C4.1805 7 5.0355 7.2445 5.8635 7.4805C6.7565 7.736 7.681 8 8.5005 8C10.0905 8 11.6415 7.3055 11.707 7.2755L12.0005 7.1425V0.045L11.294 0.365ZM11.0005 3.484C10.68 3.6055 10.1275 3.792 9.5005 3.9045V1.918C10.079 1.828 10.6065 1.6785 11.0005 1.546V3.484ZM8.5005 4C7.9195 4 7.2105 3.8215 6.5005 3.622V1.6595C7.188 1.846 7.875 2 8.501 2V4H8.5005ZM6.5 4.6595C7.1875 4.846 7.8745 5 8.5005 5V7C7.919 7 7.21 6.8215 6.5 6.622V4.6595ZM5.5005 1.3775V3.34C4.813 3.1535 4.1265 3 3.5005 3V1C4.0815 1 4.7905 1.1785 5.5005 1.3775ZM2.5005 1.147V3.117C1.926 3.245 1.401 3.4575 1 3.6515V1.7815C1.297 1.612 1.8595 1.3225 2.5005 1.147ZM0.9995 4.7815C1.2965 4.612 1.859 4.3215 2.4995 4.1465V6.117C1.9255 6.245 1.4005 6.458 0.9995 6.6515V4.7815ZM3.4995 6V4C4.0805 4 4.789 4.1785 5.499 4.3775V6.34C4.812 6.1535 4.125 6 3.4995 6ZM9.5 6.9045V4.918C10.079 4.828 10.6065 4.678 11.0005 4.546V6.484C10.68 6.6055 10.127 6.792 9.5 6.9045Z" fill="black"/>
</g>
<defs>
<clipPath id="clip0_9_20">
<rect width="12" height="12" fill="white"/>
</clipPath>
</defs>
</svg>
