<svg width="23" height="21" viewBox="0 0 23 21" fill="none" xmlns="http://www.w3.org/2000/svg">
<path d="M11.5 20.1429C11.2775 20.1429 11.0893 20.0658 10.9353 19.9118L2.92634 12.1853C2.84077 12.1168 2.72312 12.0056 2.57338 11.8516C2.42364 11.6975 2.1862 11.4173 1.86105 11.0109C1.5359 10.6044 1.24498 10.1873 0.988281 9.75949C0.731585 9.33166 0.502697 8.81399 0.301618 8.20648C0.100539 7.59896 0 7.00856 0 6.43527C0 4.55283 0.543341 3.0811 1.63002 2.02009C2.7167 0.95908 4.21838 0.428574 6.13504 0.428574C6.66555 0.428574 7.20675 0.520556 7.75865 0.704522C8.31055 0.888488 8.82394 1.13663 9.29883 1.44894C9.77372 1.76126 10.1823 2.05432 10.5246 2.32813C10.8668 2.60194 11.192 2.89286 11.5 3.20089C11.808 2.89286 12.1332 2.60194 12.4754 2.32813C12.8177 2.05432 13.2263 1.76126 13.7012 1.44894C14.1761 1.13663 14.6895 0.888488 15.2414 0.704522C15.7932 0.520556 16.3344 0.428574 16.865 0.428574C18.7816 0.428574 20.2833 0.95908 21.37 2.02009C22.4567 3.0811 23 4.55283 23 6.43527C23 8.32627 22.0203 10.2515 20.0608 12.2109L12.0647 19.9118C11.9107 20.0658 11.7225 20.1429 11.5 20.1429Z" fill="#CECECE"/>
</svg>
