<svg width="100" height="150" viewBox="0 0 100 150" fill="none" xmlns="http://www.w3.org/2000/svg">
<g clip-path="url(#clip0_18_195)">
<rect width="100" height="150" rx="2" fill="#E9E9E9"/>
<path d="M50.7463 73.8806C54.2886 73.8806 57.7514 72.3049 60.6968 69.3529C63.6421 66.4009 65.9378 62.205 67.2934 57.296C68.649 52.3869 69.0036 46.9851 68.3126 41.7737C67.6215 36.5623 65.9157 31.7752 63.4109 28.018C60.906 24.2608 57.7147 21.7021 54.2404 20.6655C50.7661 19.6288 47.1649 20.1609 43.8922 22.1943C40.6195 24.2277 37.8223 27.6711 35.8543 32.0891C33.8862 36.5072 32.8358 41.7014 32.8358 47.0149C32.8406 54.1379 34.7291 60.9672 38.0869 66.004C41.4447 71.0407 45.9976 73.8735 50.7463 73.8806ZM50.7463 29.1045C53.1078 29.1045 55.4164 30.1549 57.3799 32.1229C59.3435 34.0909 60.8739 36.8882 61.7777 40.1609C62.6814 43.4336 62.9178 47.0348 62.4571 50.5091C61.9964 53.9834 60.8592 57.1747 59.1893 59.6795C57.5194 62.1843 55.3919 63.8901 53.0757 64.5812C50.7595 65.2723 48.3587 64.9176 46.1769 63.562C43.9951 62.2064 42.1303 59.9108 40.8183 56.9654C39.5063 54.0201 38.806 50.5573 38.806 47.0149C38.806 42.2648 40.064 37.7092 42.3032 34.3503C44.5424 30.9915 47.5795 29.1045 50.7463 29.1045Z" fill="#D9D9D9"/>
<path d="M50.7463 82.8358C43.6235 82.8477 36.7947 87.0972 31.7581 94.6521C26.7215 102.207 23.8885 112.45 23.8806 123.134C23.8806 124.322 24.1951 125.461 24.7549 126.3C25.3147 127.14 26.074 127.612 26.8657 127.612C27.6574 127.612 28.4166 127.14 28.9764 126.3C29.5363 125.461 29.8507 124.322 29.8507 123.134C29.8507 114.822 32.0522 106.849 35.9709 100.971C39.8896 95.0933 45.2044 91.791 50.7463 91.791C56.2881 91.791 61.603 95.0933 65.5216 100.971C69.4403 106.849 71.6418 114.822 71.6418 123.134C71.6418 124.322 71.9563 125.461 72.5161 126.3C73.0759 127.14 73.8352 127.612 74.6269 127.612C75.4186 127.612 76.1778 127.14 76.7376 126.3C77.2974 125.461 77.6119 124.322 77.6119 123.134C77.604 112.45 74.771 102.207 69.7344 94.6521C64.6979 87.0972 57.8691 82.8477 50.7463 82.8358Z" fill="#D9D9D9"/>
</g>
<defs>
<clipPath id="clip0_18_195">
<rect width="100" height="150" fill="white"/>
</clipPath>
</defs>
</svg>
