<svg width="14" height="22" viewBox="0 0 14 22" fill="none" xmlns="http://www.w3.org/2000/svg">
<path d="M1.18872 1.27763H12.7415V19.2676L6.98575 13.2853L1.18872 19.5258V1.27763Z" fill="#CECECE"/>
<path fill-rule="evenodd" clip-rule="evenodd" d="M0.537307 0.0347741C0.349574 0.0916704 0.0884389 0.376109 0.0354198 0.581573C0.00509364 0.698981 -0.00505607 3.91152 0.00228822 11.0744L0.0128506 21.3979L0.0990427 21.5701C0.14645 21.6648 0.264083 21.8003 0.360466 21.8714C0.513087 21.9838 0.571222 22.0004 0.810654 22C1.00623 21.9996 1.12295 21.9761 1.21496 21.9183C1.28609 21.8737 2.61137 20.3778 4.16006 18.5941C5.70876 16.8105 6.98963 15.3511 7.00643 15.3511C7.02322 15.3511 8.30409 16.8105 9.85279 18.5941C11.4015 20.3778 12.7268 21.8737 12.7979 21.9183C12.8899 21.9761 13.0066 21.9996 13.2022 22C13.4416 22.0004 13.4998 21.9838 13.6524 21.8714C13.7488 21.8003 13.8664 21.6648 13.9138 21.5701L14 21.3979V10.9796V0.561216L13.8893 0.38674C13.8284 0.290808 13.7078 0.166298 13.6211 0.110134L13.4636 0.0080044L7.06832 0.000860073C3.10744 -0.00357285 0.621353 0.00933857 0.537307 0.0347741ZM12.3702 10.3124V18.9169L12.1505 18.6726C12.0297 18.5382 11.0337 17.3922 9.93721 16.1258C7.41857 13.2169 7.49486 13.2987 7.22304 13.216C7.0285 13.1567 6.98435 13.1567 6.78981 13.216C6.51799 13.2987 6.59428 13.2169 4.07564 16.1258C2.97916 17.3922 1.98314 18.5382 1.86233 18.6726L1.64262 18.9169V10.3124V1.70801H7.00643H12.3702V10.3124Z" fill="#CECECE"/>
</svg>
